<svg xmlns="http://www.w3.org/2000/svg" width="30.005" height="30" viewBox="0 0 30.005 30">
  <path id="filter" d="M-4137-18294a15.018,15.018,0,0,1,15-15,15.018,15.018,0,0,1,15,15,15.017,15.017,0,0,1-15,15A15.017,15.017,0,0,1-4137-18294Zm1.875,0a13.141,13.141,0,0,0,13.127,13.123,13.141,13.141,0,0,0,13.128-13.123,13.144,13.144,0,0,0-13.128-13.127A13.144,13.144,0,0,0-4135.127-18294Zm13.711,8.2-2.284-1.393a2.033,2.033,0,0,1-.956-1.723v-1.875a4.408,4.408,0,0,0-1.9-3.652,7.607,7.607,0,0,1-3.294-6.3.948.948,0,0,1,.937-.951h13.827a.944.944,0,0,1,.933.951,7.614,7.614,0,0,1-3.29,6.3,4.408,4.408,0,0,0-1.9,3.652v3.8a1.384,1.384,0,0,1-1.369,1.393A1.331,1.331,0,0,1-4121.416-18285.8Zm-4.1-10.225a6.325,6.325,0,0,1,2.729,5.234v1.875a.1.1,0,0,0,.051.092l1.516.924v-2.891a6.325,6.325,0,0,1,2.729-5.234,5.657,5.657,0,0,0,2.385-3.771h-11.8A5.639,5.639,0,0,0-4125.515-18296.025Z" transform="translate(4137.002 18309)" fill="#353448"/>
</svg>
