<svg xmlns="http://www.w3.org/2000/svg" width="18.9" height="18.9" viewBox="0 0 18.9 18.9">
  <g id="information_2_" data-name="information(2)" transform="translate(0.2 0.2)" opacity="0.9">
    <g id="Group_2213" data-name="Group 2213">
      <g id="Group_2212" data-name="Group 2212">
        <path id="Path_2219" data-name="Path 2219" d="M9.25,0A9.25,9.25,0,1,0,18.5,9.25,9.245,9.245,0,0,0,9.25,0Zm0,17.267A8.017,8.017,0,1,1,17.267,9.25,8.026,8.026,0,0,1,9.25,17.267Z" fill="#6f6bb2" stroke="#6f6bb2" stroke-width="0.4"/>
      </g>
    </g>
    <g id="Group_2215" data-name="Group 2215" transform="translate(8.633 7.58)">
      <g id="Group_2214" data-name="Group 2214">
        <path id="Path_2220" data-name="Path 2220" d="M239.547,209.777a.617.617,0,0,0-.617.617v5.2a.617.617,0,1,0,1.233,0v-5.2A.617.617,0,0,0,239.547,209.777Z" transform="translate(-238.93 -209.777)" fill="#6f6bb2" stroke="#6f6bb2" stroke-width="0.4"/>
      </g>
    </g>
    <g id="Group_2217" data-name="Group 2217" transform="translate(8.017 4.485)">
      <g id="Group_2216" data-name="Group 2216">
        <path id="Path_2221" data-name="Path 2221" d="M223.1,124.122a1.233,1.233,0,1,0,1.233,1.233A1.235,1.235,0,0,0,223.1,124.122Z" transform="translate(-221.867 -124.122)" fill="#6f6bb2" stroke="#6f6bb2" stroke-width="0.4"/>
      </g>
    </g>
  </g>
</svg>
