<svg id="statement" xmlns="http://www.w3.org/2000/svg" width="18.333" height="22" viewBox="0 0 18.333 22">
  <path id="Path_2460" data-name="Path 2460" d="M184,40h4.4v.733H184Zm0,0" transform="translate(-175.567 -38.167)" fill="#6f6bb2"/>
  <path id="Path_2462" data-name="Path 2462" d="M104,112h1.467v.733H104Zm0,0" transform="translate(-99.233 -106.867)" fill="#6f6bb2"/>
  <path id="Path_2464" data-name="Path 2464" d="M104,176h1.467v.733H104Zm0,0" transform="translate(-99.233 -167.933)" fill="#6f6bb2"/>
  <path id="Path_2467" data-name="Path 2467" d="M160,112h2.567v.733H160Zm0,0" transform="translate(-152.667 -106.867)" fill="#6f6bb2"/>
  <path id="Path_2469" data-name="Path 2469" d="M160,176h2.567v.733H160Zm0,0" transform="translate(-152.667 -167.933)" fill="#6f6bb2"/>
  <path id="Path_2472" data-name="Path 2472" d="M240,112h5.5v.733H240Zm0,0" transform="translate(-229 -106.867)" fill="#6f6bb2"/>
  <path id="Path_2474" data-name="Path 2474" d="M240,176h5.5v.733H240Zm0,0" transform="translate(-229 -167.933)" fill="#6f6bb2"/>
  <path id="Path_2476" data-name="Path 2476" d="M104,240h1.467v.733H104Zm0,0" transform="translate(-99.233 -229)" fill="#6f6bb2"/>
  <path id="Path_2478" data-name="Path 2478" d="M104,304h1.467v.733H104Zm0,0" transform="translate(-99.233 -290.067)" fill="#6f6bb2"/>
  <path id="Path_2479" data-name="Path 2479" d="M160,240h2.567v.733H160Zm0,0" transform="translate(-152.667 -229)" fill="#6f6bb2"/>
  <path id="Path_2481" data-name="Path 2481" d="M160,304h2.567v.733H160Zm0,0" transform="translate(-152.667 -290.067)" fill="#6f6bb2"/>
  <path id="Path_2482" data-name="Path 2482" d="M240,240h5.5v.733H240Zm0,0" transform="translate(-229 -229)" fill="#6f6bb2"/>
  <path id="Path_2484" data-name="Path 2484" d="M17.233,0H4.033a1.08,1.08,0,0,0-1.1,1.1V17.967h.733V1.1A.346.346,0,0,1,4.033.733h13.2A.346.346,0,0,1,17.6,1.1V20.167a1.1,1.1,0,1,1-2.2,0V18.7H0v1.467A1.816,1.816,0,0,0,1.833,22H16.5a1.816,1.816,0,0,0,1.833-1.833V1.1A1.08,1.08,0,0,0,17.233,0ZM1.833,21.267a1.08,1.08,0,0,1-1.1-1.1v-.733H14.667v.733a1.976,1.976,0,0,0,.367,1.1Zm0,0" fill="#6f6bb2"/>
  <path id="Path_2489" data-name="Path 2489" d="M240,304h5.5v.733H240Zm0,0" transform="translate(-229 -290.067)" fill="#6f6bb2"/>
</svg>
