<svg id="user_4_" data-name="user(4)" xmlns="http://www.w3.org/2000/svg" width="74.025" height="74.025" viewBox="0 0 74.025 74.025">
  <path id="Path_2544" data-name="Path 2544" d="M74.025,37.013A37.013,37.013,0,1,1,37.013,0,36.921,36.921,0,0,1,74.025,37.013Zm0,0" transform="translate(0)" fill="#6f6bb2"/>
  <path id="Path_2545" data-name="Path 2545" d="M293.019,37.013A37.015,37.015,0,0,1,256,74.025V0A37.017,37.017,0,0,1,293.019,37.013Zm0,0" transform="translate(-218.994)" fill="#353448"/>
  <path id="Path_2546" data-name="Path 2546" d="M133.368,296.567v.148a37,37,0,0,1-49.879,0v-.148a24.94,24.94,0,1,1,49.879,0Zm0,0" transform="translate(-71.415 -232.356)" fill="#f4f4f4"/>
  <path id="Path_2547" data-name="Path 2547" d="M280.946,296.567v.148A36.889,36.889,0,0,1,256,306.381v-34.76a24.944,24.944,0,0,1,24.946,24.945Zm0,0" transform="translate(-218.991 -232.356)" fill="#e3e3e3"/>
  <path id="Path_2548" data-name="Path 2548" d="M180.792,104.414a15.3,15.3,0,1,1-15.3-15.3A15.318,15.318,0,0,1,180.792,104.414Zm0,0" transform="translate(-128.479 -76.231)" fill="#ffdba9"/>
  <path id="Path_2549" data-name="Path 2549" d="M271.3,104.414a15.318,15.318,0,0,1-15.3,15.3v-30.6A15.317,15.317,0,0,1,271.3,104.414Zm0,0" transform="translate(-218.989 -76.231)" fill="#e6b376"/>
  <g id="Group_6091" data-name="Group 6091" transform="translate(26.642 49.533)">
    <path id="Path_3495" data-name="Path 3495" d="M56.931,29a8.863,8.863,0,0,1,8.042,5.191v.01l.01.01.31.61a8.838,8.838,0,0,1-8.306,11.844H48.108v-6.1c0-1.085,0-2.211.01-3.311A8.8,8.8,0,0,1,56.925,29m0-.444a9.24,9.24,0,0,0-9.246,8.678c-.015,1.26-.01,2.515-.01,3.776v6.1h9.323A9.281,9.281,0,0,0,65.706,34.65l-.325-.635a9.283,9.283,0,0,0-8.445-5.449Z" transform="translate(-46.269 -28.56)" fill="#353448"/>
    <path id="Path_3496" data-name="Path 3496" d="M57.633,29.98a8.508,8.508,0,0,0-8.512,7.986c-.01,1.157-.01,2.314-.01,3.471v5.615h8.58a8.534,8.534,0,0,0,8.016-11.472l-.3-.584a8.548,8.548,0,0,0-7.774-5.015Z" transform="translate(-46.966 -29.247)" fill="#353448"/>
    <path id="Path_3497" data-name="Path 3497" d="M46,48.576h0a1.072,1.072,0,0,0,.956.6.635.635,0,0,0,.139-.01h0A1.07,1.07,0,0,0,48,48.308h0a1.2,1.2,0,0,0,.021-.191,1.051,1.051,0,0,0-.031-.248c-.01.01,0-.015,0,0,.79-.661,4.354-4.8,5.594-5.842-.015-.005.01-.01,0,0a1.072,1.072,0,0,0,.424.088,1.122,1.122,0,0,0,.32-.052c-.01-.01.015,0,0,0,.289.294,3.053,2.986,3.156,3.1.005-.015.01.01,0,0a1.072,1.072,0,0,0-.057.341,1.116,1.116,0,0,0,.062.367,1.073,1.073,0,0,0,.961.7H58.5a1.074,1.074,0,0,0,.945-.584h0a1.014,1.014,0,0,0,.114-.48,1.243,1.243,0,0,0-.015-.191c-.01.01,0-.015,0,0,.594-.444,3.471-3.7,4.664-4.6a1.144,1.144,0,0,0,.475.108,1.043,1.043,0,0,0,.79-.346h0a1.043,1.043,0,0,0,.279-.718v-.067a1.047,1.047,0,0,0-.367-.749h0a1.016,1.016,0,0,0-.687-.253,1.051,1.051,0,0,0-.744.3h0a1.081,1.081,0,0,0-.31.956c.01-.01,0,.015,0,0-.718.542-3.6,3.8-4.659,4.6.015.005-.01.01,0,0a1.107,1.107,0,0,0-.48-.108,1.059,1.059,0,0,0-.315.052h0s-2.51-2.438-3.156-3.094c-.005.015-.01-.01,0,0a.989.989,0,0,0,.057-.263h0v-.088a1.063,1.063,0,0,0-.47-.878h0a1.055,1.055,0,0,0-1.054-.083h0a1.08,1.08,0,0,0-.61.976.9.9,0,0,0,.031.232c.01-.01,0,.015,0,0-1,.837-4.556,4.974-5.589,5.837.015.005-.01.01,0,0a1.047,1.047,0,0,0-.418-.088,1.066,1.066,0,0,0-.754.3h0a1.072,1.072,0,0,0-.207,1.229Zm.046-.47a.908.908,0,0,1,.3-.671.958.958,0,0,1,.424-.222.922.922,0,0,1,.553.052l.026.01h.015l.041.026.036-.031c.832-.7,5.263-5.563,5.692-5.925l-.015-.046v-.01l-.01-.041a.151.151,0,0,0-.01-.046v-.036a.213.213,0,0,1-.01-.046v-.072a.387.387,0,0,1,.01-.108v-.016c.01-.031.015-.062.026-.1l.01-.036a.551.551,0,0,1,.036-.1l.015-.026a.565.565,0,0,1,.041-.077l.015-.031c.021-.031.041-.062.062-.088v-.01l.021-.01c.021-.021.041-.046.062-.067l.021-.021s.052-.041.083-.062l.031-.021a.721.721,0,0,1,.088-.046h.01a.367.367,0,0,1,.093-.041l.036-.01.062-.015a.348.348,0,0,1,.072-.01h.026s.036-.005.057-.01h.072a.387.387,0,0,1,.108.01h.031a.786.786,0,0,0,.1.031c.026.005.046.021.072.026a.216.216,0,0,1,.052.021c.041.021.077.041.119.067l.015.015a.766.766,0,0,1,.072.057c.015.01.026.026.041.036a.312.312,0,0,1,.041.041.284.284,0,0,1,.036.046.286.286,0,0,0,.031.041c.01.015.021.036.031.052a.209.209,0,0,1,.026.046c.01.015.015.036.026.052s.015.036.021.052.01.036.015.052l.015.062a.227.227,0,0,0,.01.052.3.3,0,0,0,.01.067v.15a.341.341,0,0,1-.005.072v.021l-.01.026v.026l-.015.031v.021l-.01.015-.01.036v.021l-.01.015-.01.031.031.031c.408.413,2.784,2.712,3.249,3.187l.046-.015h.021a.515.515,0,0,1,.057-.021.122.122,0,0,0,.041-.01h.026l.021-.01h.01l.036-.005h.1a.5.5,0,0,1,.124.01h.01s.026.005.041.01a.316.316,0,0,1,.067.015h.021l.041.021a.216.216,0,0,1,.052.021l.031.015.036.015.021.01.041.021.015-.01L59,44.7c.894-.671,3.843-3.988,4.768-4.685l-.01-.046V39.94l-.01-.026v-.026a.387.387,0,0,1-.01-.108v-.015a.659.659,0,0,1,.005-.1V39.63a.43.43,0,0,0,.021-.077l.01-.031a.921.921,0,0,1,.088-.207l.01-.021c.015-.026.036-.052.052-.077l.016-.015c.026-.031.046-.057.077-.088a.334.334,0,0,1,.046-.041l.015-.01s.046-.036.072-.052h.005a.823.823,0,0,1,.15-.077h.01a.974.974,0,0,1,.16-.052h.01s.031-.005.041-.005a1,1,0,0,1,.124-.01h.031a.678.678,0,0,1,.139.015,1.086,1.086,0,0,1,.124.031l.031.01a.849.849,0,0,1,.279.165.859.859,0,0,1,.072.067l.01.01s.036.041.052.062l.015.026a.594.594,0,0,1,.036.057l.015.031a.461.461,0,0,1,.026.052l.015.036a.329.329,0,0,1,.021.052c0,.015.01.026.015.041l.01.026v.015l.005.01a.1.1,0,0,0,.01.041.183.183,0,0,0,.01.052V39.8a.689.689,0,0,1-.015.145v.015l-.005.015a1.02,1.02,0,0,1-.036.134v.01l-.01.015c-.021.046-.041.088-.062.129h0l-.005.015a.687.687,0,0,1-.1.124l-.021.021a.888.888,0,0,1-.2.16h0a.412.412,0,0,1-.083.041h-.01a.459.459,0,0,1-.077.031h-.016s-.052.021-.072.026H64.83l-.067.015h-.1a.5.5,0,0,1-.124-.01h-.01s-.026-.005-.041-.01a.256.256,0,0,1-.067-.015H64.4a.288.288,0,0,0-.041-.021.216.216,0,0,1-.052-.021l-.031-.015-.031-.015-.021-.01-.041-.021-.036.031c-.883.666-4.768,4.685-4.768,4.685l.01.046v.036l.01.036a.176.176,0,0,0,.005.052v.077h0a.692.692,0,0,1-.005.1v.021a.645.645,0,0,1-.015.1l-.01.036v.026l-.015.031v.01c-.015.031-.031.067-.046.1s-.026.041-.036.062-.016.031-.026.046a.9.9,0,0,1-.129.15.941.941,0,0,1-.418.222.9.9,0,0,1-.2.026h-.046a.509.509,0,0,1-.124-.015h-.005a.945.945,0,0,1-.589-.393.927.927,0,0,1-.1-.2A.66.66,0,0,1,57.6,45.7v-.015a.658.658,0,0,1-.01-.145V45.41a.422.422,0,0,1,.01-.046v-.021l.01-.036v-.015l.031-.077V45.2h.005l.016-.041s-2.665-2.6-3.285-3.233l-.046.015h-.021a.515.515,0,0,1-.057.021l-.041.01h-.026l-.021.01h-.015l-.036.005c-.031,0-.067.005-.1.005a.837.837,0,0,1-.114-.005h-.01l-.026-.005a.362.362,0,0,1-.072-.015h-.026l-.026-.015-.052-.015-.036-.015-.026-.01h-.015l-.041-.026-.036.031c-1.126.945-4.876,5.243-5.7,5.93l.01.046V47.9a.961.961,0,0,1-.01.527v.015a.94.94,0,0,1-.754.6h-.119a1,1,0,0,1-.253-.036.928.928,0,0,1-.542-.434.942.942,0,0,1-.114-.455Z" transform="translate(-45.419 -33.458)" fill="#353448"/>
    <path id="Path_3498" data-name="Path 3498" d="M45.539,48.19l-.4.2h0l.4-.2-.4.186a1.466,1.466,0,0,0,.553.62,1.494,1.494,0,0,0,.8.232h0a.883.883,0,0,0,.2-.016h0l-.067-.439.052.439a1.5,1.5,0,0,0,.847-.4,1.477,1.477,0,0,0,.444-.826l-.434-.077.429.114h0v-.026a1.214,1.214,0,0,0,.031-.279H47.6l.387.01v-.01H47.6l.387.01h0v-.01a1.477,1.477,0,0,0-.041-.346l-.165-.7-.553.465.274.331-.2-.382c-.041.021-.062.041-.083.052l.274.331-.2-.382.2.393v-.439a.384.384,0,0,0-.2.046l.2.393v0l.217-.382a.44.44,0,0,0-.217-.057v.439l.217-.382-.217.382.346-.274a.381.381,0,0,0-.129-.108l-.217.382.346-.274-.346.274.429-.108a.378.378,0,0,0-.083-.165l-.346.274.429-.108-.424.108h.439a.289.289,0,0,0-.015-.108l-.424.108h.005l.424.1a.581.581,0,0,0,.01-.1h-.434l.424.1-.424-.1.356.253a.407.407,0,0,0,.067-.15l-.424-.1.356.253-.356-.258.248.362a.422.422,0,0,0,.108-.108l-.356-.258.248.362-.248-.362V47.9a.44.44,0,0,0,.248-.077l-.248-.362v0l-.258.362a.44.44,0,0,0,.258.083v-.439l-.258.362.253-.356-.351.263a.431.431,0,0,0,.1.093l.253-.356-.351.263.346-.263-.4.16a.622.622,0,0,0,.057.1l.346-.263-.4.16.393-.155-.413.1s.01.031.021.057l.393-.155-.413.1.165.7.548-.46a6.169,6.169,0,0,0,.449-.429c.315-.32.723-.759,1.183-1.26.687-.749,1.488-1.627,2.211-2.4.362-.387.7-.744,1.007-1.049s.563-.553.744-.7l.553-.465-.666-.279-.165.4.279-.325a.309.309,0,0,0-.114-.067l-.165.4.279-.325-.284.336.377-.227a.342.342,0,0,0-.093-.108l-.284.336.377-.227-.377.227h.439a.473.473,0,0,0-.062-.227l-.377.227h0l.408.176a.484.484,0,0,0,.036-.176h-.439l.408.176-.4-.176.269.351a.471.471,0,0,0,.139-.176l-.4-.176.269.351-.263-.346.114.424a.386.386,0,0,0,.155-.077l-.263-.346.114.424-.114-.418v.434a.3.3,0,0,0,.114-.015l-.114-.418v-.005l-.2.387a.389.389,0,0,0,.2.046V41.64l-.2.387.2-.393-.356.258a.441.441,0,0,0,.155.134l.2-.393-.356.258.356-.258h-.439a.452.452,0,0,0,.083.258l.356-.258h0l-.413-.155a.441.441,0,0,0-.026.155h.439l-.413-.155.408.155-.336-.279a.486.486,0,0,0-.072.124l.408.155-.336-.279.331.274-.279-.325s-.031.031-.052.057l.331.274-.279-.325-.542.465.656.284a1.554,1.554,0,0,0,.6.124A1.574,1.574,0,0,0,54,42.11l.692-.212-.506-.517-.31.3.372-.212a.345.345,0,0,0-.067-.088l-.31.3.372-.212-.382.217H54.3a.442.442,0,0,0-.057-.217l-.382.217h0l.372.238a.47.47,0,0,0,.072-.238h-.439l.372.238-.372-.238.253.362a.432.432,0,0,0,.119-.119l-.372-.238.253.362-.253-.362.1.429a.408.408,0,0,0,.15-.067l-.253-.362.1.429-.1-.424v.439a.407.407,0,0,0,.1-.01l-.1-.424v.005l-.186.393a.42.42,0,0,0,.186.041v-.434l-.186.393.186-.4-.32.3a.375.375,0,0,0,.134.1l.186-.4-.32.3.32-.3-.4.181A.591.591,0,0,0,53.54,42l.32-.3-.4.181.4-.181h-.439a.405.405,0,0,0,.041.181l.4-.181h0l-.367-.248a.429.429,0,0,0-.077.248h.439l-.367-.248.362.243-.217-.382a.449.449,0,0,0-.15.134l.362.243-.217-.382.207.372-.129-.4a.616.616,0,0,0-.077.036l.207.372-.129-.4-.682.217.5.511.217.217c.362.356,1.074,1.054,1.71,1.674.315.31.615.6.837.821.114.108.207.2.274.269.036.031.062.062.083.083l.021.021h.005V45.1l.134-.129-.139.124h0l.134-.124-.139.124.5.548.243-.7-.4-.139.341.258a.433.433,0,0,0,.062-.119l-.4-.139.341.258L57,44.8l.243.367a.42.42,0,0,0,.108-.1L57,44.8l.243.367L57,44.8v.439a.466.466,0,0,0,.243-.072L57,44.8v0l-.186.4A.428.428,0,0,0,57,45.24V44.8l-.186.4L57,44.8l-.356.263a.409.409,0,0,0,.17.139L57,44.8l-.356.263.351-.258-.424.114a.409.409,0,0,0,.072.145l.351-.258-.424.114.418-.114h-.434a.288.288,0,0,0,.015.114l.418-.114h.005l-.429-.083a.515.515,0,0,0-.01.083h.439l-.429-.083.434.083-.336-.284a.429.429,0,0,0-.093.2L57,44.8l-.336-.284L57,44.8l-.191-.4a.416.416,0,0,0-.145.114L57,44.8l-.191-.4.191.4v-.439a.417.417,0,0,0-.191.046l.191.4v0l.145-.413A.381.381,0,0,0,57,44.367v.439l.145-.413L57,44.806l.263-.346a.41.41,0,0,0-.119-.062L57,44.812l.263-.346-.258.341.315-.289s-.031-.031-.057-.052l-.258.341.315-.289-.5-.542-.243.692a1.546,1.546,0,0,0-.083.486,1.619,1.619,0,0,0,.088.517h0a1.506,1.506,0,0,0,1.358.992l.015-.444-.031.439H58a1.468,1.468,0,0,0,.785-.227,1.488,1.488,0,0,0,.553-.6l-.4-.2.393.207h0a1.465,1.465,0,0,0,.165-.687,1.939,1.939,0,0,0-.021-.258l-.119-.728-.589.444.258.341-.181-.387q-.054.031-.077.046l.258.341-.181-.387.186.4v-.439a.472.472,0,0,0-.186.041l.186.4v0l.2-.393a.437.437,0,0,0-.2-.046v.439l.2-.393-.2.393.336-.289a.444.444,0,0,0-.134-.1l-.2.393.336-.289-.331.289.424-.119a.514.514,0,0,0-.093-.17l-.331.289.424-.119-.424.119h.439a.357.357,0,0,0-.015-.119l-.424.119h.005l.418.119a.368.368,0,0,0,.015-.119h-.434l.418.119-.418-.119.346.263a.471.471,0,0,0,.072-.145l-.418-.119.346.263-.351-.263.248.362a.479.479,0,0,0,.1-.1l-.351-.263.248.362-.248-.367.145.413a.482.482,0,0,0,.1-.052l-.248-.367.145.413-.145-.418v.439a.4.4,0,0,0,.145-.026l-.145-.418v0l-.145.418a.474.474,0,0,0,.145.026v-.439l-.145.418.145-.418-.325.3a.457.457,0,0,0,.181.119l.145-.418-.325.3.325-.294-.413.15a.424.424,0,0,0,.088.145l.325-.294-.413.15.4-.145-.418.067a.33.33,0,0,0,.021.077l.4-.145-.418.067.119.723.584-.439c.052-.041.108-.088.165-.139.114-.1.243-.227.4-.382.537-.537,1.327-1.384,2.107-2.185.387-.4.775-.79,1.121-1.121a10.447,10.447,0,0,1,.873-.77l-.269-.351-.191.4a1.519,1.519,0,0,0,.666.15,1.473,1.473,0,0,0,1.121-.5h0l-.331-.294.32.3a1.459,1.459,0,0,0,.4-1.018v-.093h0a1.489,1.489,0,0,0-.532-1.059h0l-.005-.005-.274.346.294-.331a1.46,1.46,0,0,0-.987-.367h0a1.51,1.51,0,0,0-1.059.429l.315.315-.294-.331h0l-.005.005h-.005a1.537,1.537,0,0,0-.46,1.1h0a1.324,1.324,0,0,0,.026.258l.124.718.579-.444-.258-.341.181.387q.054-.031.077-.046l-.258-.341.181.387-.186-.4v.439a.427.427,0,0,0,.186-.041l-.186-.4v0l-.2.393a.448.448,0,0,0,.2.052v-.439l-.2.393.2-.393-.336.289a.444.444,0,0,0,.134.1l.2-.393-.336.289.336-.289-.424.119a.487.487,0,0,0,.088.17l.336-.289-.424.119.424-.119H62.7a.372.372,0,0,0,.015.119l.424-.119h-.005l-.418-.114a.355.355,0,0,0-.015.114h.434l-.418-.114.418.114-.346-.263a.471.471,0,0,0-.072.145l.418.114-.346-.263.351.263-.248-.362a.479.479,0,0,0-.1.1l.351.263-.248-.362.248.367V39.15a.44.44,0,0,0-.248.077l.248.367v0l.145-.418a.474.474,0,0,0-.145-.026v.439l.145-.418-.145.413.325-.3a.457.457,0,0,0-.181-.119l-.145.413.325-.3-.32.294.413-.15a.424.424,0,0,0-.088-.145l-.32.294.413-.15-.4.145.418-.067a.33.33,0,0,0-.021-.077l-.4.145.418-.067-.119-.723-.584.439a4.957,4.957,0,0,0-.4.351c-.274.258-.615.61-1,1.007-.573.594-1.224,1.281-1.818,1.89-.3.3-.579.584-.826.821s-.465.424-.615.537l-.584.439.661.315.186-.387-.289.315a.652.652,0,0,0,.1.072l.186-.387-.289.315.294-.325-.382.217a.524.524,0,0,0,.088.108l.294-.325-.382.217.382-.222h-.439a.5.5,0,0,0,.057.222l.382-.222h0l-.408-.17a.48.48,0,0,0-.036.17h.439l-.408-.17.408.17-.263-.351a.407.407,0,0,0-.139.181l.408.17-.263-.351.263.351-.108-.424a.386.386,0,0,0-.155.077l.263.351-.108-.424.108.424v-.434a.276.276,0,0,0-.108.015l.108.424v.005l.191-.393a.385.385,0,0,0-.191-.041V44.2l.191-.393-.191.4.346-.274a.486.486,0,0,0-.155-.124l-.191.4.346-.274-.346.274.413-.15a.4.4,0,0,0-.067-.124l-.346.274.413-.15-.413.15h.439a.537.537,0,0,0-.026-.15l-.413.15h0l.408.165a.471.471,0,0,0,.031-.165h-.439l.408.165-.4-.165.32.294a.4.4,0,0,0,.083-.129l-.4-.165.32.294-.315-.289.253.346a.383.383,0,0,0,.062-.057l-.315-.289.253.346.594-.439-.666-.315a1.562,1.562,0,0,0-.671-.155h0a1.511,1.511,0,0,0-.444.067h-.005a.441.441,0,1,0,.248.847h.005l.723-.217L58,43.815s-.155-.15-.4-.393c-.367-.356-.935-.909-1.472-1.436s-1.038-1.018-1.276-1.26l-.5-.506-.232.671.408.145-.336-.269a.5.5,0,0,0-.072.124l.408.145-.336-.269.341.274-.227-.377a.5.5,0,0,0-.119.1l.341.274-.227-.377.227.377V40.6a.491.491,0,0,0-.227.062l.227.377v0l.176-.4a.484.484,0,0,0-.176-.036v.439l.176-.4-.176.4.346-.274a.44.44,0,0,0-.17-.129l-.176.4.346-.274-.341.274.418-.129a.5.5,0,0,0-.077-.145l-.341.274.418-.129-.418.129h.434a.339.339,0,0,0-.021-.129l-.418.129h-.005l.429.088a.659.659,0,0,0,.01-.088h-.439l.429.088-.429-.088.325.3a.442.442,0,0,0,.108-.207l-.429-.088.325.3-.325-.3.176.4a.518.518,0,0,0,.145-.1l-.325-.3.176.4-.176-.4v.439a.428.428,0,0,0,.176-.036l-.176-.4v0l-.139.418a.48.48,0,0,0,.139.026v-.439l-.139.418.139-.413-.258.356a.414.414,0,0,0,.114.057l.139-.413-.258.356.248-.346-.3.3s.026.026.052.046l.248-.346-.3.3.5.506.232-.677a1.341,1.341,0,0,0,.077-.387l-.444-.021.439.036h0v-.005h0V40.7h0a1.5,1.5,0,0,0-.666-1.245h-.01l-.01-.015-.227.382.253-.362a1.51,1.51,0,0,0-.852-.263h0a1.474,1.474,0,0,0-.646.145l.191.4-.186-.4h0l.186.4-.181-.4a1.456,1.456,0,0,0-.646.573,1.533,1.533,0,0,0-.227.806h0a1.316,1.316,0,0,0,.041.331l.165.7.553-.465-.279-.331.2.382a.315.315,0,0,0,.083-.057l-.279-.331.2.382-.2-.393v.439a.385.385,0,0,0,.2-.046l-.2-.393v0l-.222.382a.407.407,0,0,0,.222.057v-.439l-.222.382.222-.382-.346.269a.464.464,0,0,0,.129.114l.222-.382-.346.269.346-.269-.429.108a.408.408,0,0,0,.077.16l.346-.269-.429.108.424-.108h-.439a.3.3,0,0,0,.015.108l.424-.108H52.45l-.387-.2a.408.408,0,0,0-.046.2h.434l-.387-.2.393.2-.294-.325a.471.471,0,0,0-.093.124l.393.2-.294-.325.3.325-.186-.4a.335.335,0,0,0-.114.077l.3.325-.186-.4.186.4v-.439a.428.428,0,0,0-.186.041l.186.4v0l.145-.418a.448.448,0,0,0-.145-.026v.439l.145-.418-.145.418.315-.31a.441.441,0,0,0-.17-.108l-.145.418.315-.31-.31.3.4-.176a.516.516,0,0,0-.088-.134l-.31.3.4-.176-.387.17.413-.1a.419.419,0,0,0-.026-.072l-.387.17.413-.1-.165-.7-.553.465c-.145.119-.31.284-.511.48-.346.351-.785.811-1.255,1.322-.708.764-1.508,1.643-2.206,2.4-.351.377-.677.723-.956,1.007s-.511.511-.656.63l-.548.46.656.284.17-.393-.279.325a.621.621,0,0,0,.108.072l.17-.393L46.6,47.1l.289-.331-.377.222a.414.414,0,0,0,.093.108l.289-.331-.377.222.382-.222h-.439a.452.452,0,0,0,.062.222l.382-.222h0l-.408-.176a.484.484,0,0,0-.036.176H46.9l-.408-.176.4.176-.269-.351a.471.471,0,0,0-.139.176l.4.176-.269-.351.263.346-.114-.424a.386.386,0,0,0-.155.077l.263.346-.114-.424.114.418v-.434a.3.3,0,0,0-.114.015l.114.418v.005l.2-.387a.383.383,0,0,0-.2-.046v.439l.2-.387-.2.393.356-.258a.441.441,0,0,0-.155-.134l-.2.393.356-.258-.356.258h.439a.452.452,0,0,0-.083-.258l-.356.258h0l.413.155a.433.433,0,0,0,.031-.155h-.439l.413.155-.408-.155.336.279a.37.37,0,0,0,.072-.124l-.408-.155.336.279-.325-.274.274.331.057-.057-.325-.274.274.331.558-.46-.666-.289a1.548,1.548,0,0,0-.594-.124h0a1.513,1.513,0,0,0-1.069.439h0l.315.315-.3-.32a1.485,1.485,0,0,0-.455,1.08h0a1.444,1.444,0,0,0,.155.661h0l.4-.2.4-.2a.581.581,0,0,1-.062-.263h0a.6.6,0,0,1,.181-.439h0l.005-.01h0a.6.6,0,0,1,.434-.176h0v0h0v0h0a.57.57,0,0,1,.243.052l.176-.408-.284-.341a.406.406,0,0,0-.083.093.565.565,0,0,0-.052.1.44.44,0,0,0-.031.16.443.443,0,0,0,.2.377.346.346,0,0,0,.145.057.335.335,0,0,0,.1.01.382.382,0,0,0,.186-.041.452.452,0,0,0,.145-.108.465.465,0,0,0,.077-.124.484.484,0,0,0,.036-.176.436.436,0,0,0-.062-.222.428.428,0,0,0-.129-.139.494.494,0,0,0-.083-.046l-.176.408.284.341c.145-.124.32-.289.522-.491.356-.351.8-.821,1.271-1.333.713-.77,1.508-1.648,2.206-2.4.346-.377.671-.718.945-1s.5-.5.64-.62l-.284-.341-.429.1a.48.48,0,0,0,.057.139.473.473,0,0,0,.114.124.466.466,0,0,0,.114.057.474.474,0,0,0,.145.026.412.412,0,0,0,.186-.041.467.467,0,0,0,.165-.129.341.341,0,0,0,.072-.145.524.524,0,0,0,.021-.134.371.371,0,0,0-.01-.1.436.436,0,0,0-.119-.217.419.419,0,0,0-.15-.1.49.49,0,0,0-.165-.031.425.425,0,0,0-.2.046.52.52,0,0,0-.088.057l.284.336.429-.1a.666.666,0,0,1-.015-.129h0a.687.687,0,0,1,.1-.346.565.565,0,0,1,.253-.227h0a.634.634,0,0,1,.263-.057h0a.636.636,0,0,1,.346.1l.01.01.015.01.227-.382-.248.367a.634.634,0,0,1,.274.511h0v.046h0v.021a.485.485,0,0,1-.031.145l.418.145.315-.31a.462.462,0,0,0-.088-.067.472.472,0,0,0-.088-.041.519.519,0,0,0-.145-.026.432.432,0,0,0-.232.067.392.392,0,0,0-.124.119.5.5,0,0,0-.072.155.407.407,0,0,0-.01.1.4.4,0,0,0,.046.2.49.49,0,0,0,.1.134.425.425,0,0,0,.119.072.484.484,0,0,0,.176.036.491.491,0,0,0,.227-.062.441.441,0,0,0,.15-.145.269.269,0,0,0,.041-.093l-.418-.145-.315.31c.165.165.444.444.77.764.981.961,2.392,2.335,2.392,2.335l.31-.315-.124-.424h-.01a.444.444,0,0,0-.294.553.449.449,0,0,0,.553.3h.005a.664.664,0,0,1,.186-.031h0a.717.717,0,0,1,.289.067l.191-.4-.263-.356a.874.874,0,0,0-.093.088.319.319,0,0,0-.057.1.466.466,0,0,0-.005.32.5.5,0,0,0,.129.191.447.447,0,0,0,.176.093.5.5,0,0,0,.114.015.324.324,0,0,0,.181-.041.462.462,0,0,0,.15-.108.364.364,0,0,0,.077-.124.479.479,0,0,0,.036-.17.441.441,0,0,0-.181-.362.336.336,0,0,0-.077-.046l-.191.4.269.351a6.266,6.266,0,0,0,.506-.434c.331-.3.713-.682,1.121-1.1.609-.62,1.26-1.312,1.818-1.89.279-.289.532-.548.744-.754.1-.1.2-.2.279-.269s.145-.129.186-.16L63.1,39.6l-.439.072a.413.413,0,0,0,.052.15.514.514,0,0,0,.119.139.369.369,0,0,0,.119.062.48.48,0,0,0,.15.026.471.471,0,0,0,.186-.041.437.437,0,0,0,.16-.124.541.541,0,0,0,.077-.134.475.475,0,0,0,.016-.253.414.414,0,0,0-.041-.108.5.5,0,0,0-.16-.17.415.415,0,0,0-.232-.062.478.478,0,0,0-.191.041.472.472,0,0,0-.083.052l.269.351.434-.077a.986.986,0,0,1-.01-.1h0a.658.658,0,0,1,.186-.455l-.3-.32.294.331h0l.01-.01.01-.01a.622.622,0,0,1,.434-.17h0a.593.593,0,0,1,.393.139l.01.01.01.01.274-.346-.279.341a.61.61,0,0,1,.207.434h0v.036a.593.593,0,0,1-.155.408H64.6l-.005.015h0a.628.628,0,0,1-.739.129l-.243-.114-.217.16a6.3,6.3,0,0,0-.548.465c-.7.635-1.606,1.581-2.407,2.423-.4.418-.775.811-1.08,1.121-.15.155-.284.289-.393.393a3.059,3.059,0,0,1-.232.207l.263.356.439-.072a.413.413,0,0,0-.052-.15.514.514,0,0,0-.119-.139.369.369,0,0,0-.119-.062.48.48,0,0,0-.15-.026.446.446,0,0,0-.341.16.464.464,0,0,0-.077.134.475.475,0,0,0-.015.253.414.414,0,0,0,.041.108.468.468,0,0,0,.165.17.445.445,0,0,0,.227.062.428.428,0,0,0,.186-.041.471.471,0,0,0,.083-.052L59,44.972l-.439.072c.005.046.01.088.01.119a.63.63,0,0,1-.062.274h0v.01a.615.615,0,0,1-.227.248.606.606,0,0,1-.32.093h-.041a.577.577,0,0,1-.336-.119.57.57,0,0,1-.217-.289h0a.637.637,0,0,1-.036-.217.593.593,0,0,1,.031-.191l-.418-.145-.325.3a.725.725,0,0,0,.093.077.516.516,0,0,0,.093.046.4.4,0,0,0,.145.026.455.455,0,0,0,.253-.077.516.516,0,0,0,.119-.119.418.418,0,0,0,.062-.15.371.371,0,0,0,.01-.1.46.46,0,0,0-.139-.325.589.589,0,0,0-.119-.083.428.428,0,0,0-.186-.041.466.466,0,0,0-.243.072.382.382,0,0,0-.139.145.331.331,0,0,0-.036.083l.418.145.325-.3-.026-.031-.2-.2c-.336-.331-1.012-.992-1.632-1.6l-.842-.826c-.119-.114-.217-.217-.3-.294s-.139-.134-.165-.165l-.315.31.134.424a.452.452,0,0,0,.129-.062.462.462,0,0,0,.108-.114.442.442,0,0,0,.077-.248.389.389,0,0,0-.041-.181.409.409,0,0,0-.139-.17.386.386,0,0,0-.15-.072.48.48,0,0,0-.124-.015.271.271,0,0,0-.088.01.422.422,0,0,0-.207.1.444.444,0,0,0-.108.145.506.506,0,0,0-.041.186.486.486,0,0,0,.057.222.631.631,0,0,0,.067.093l.315-.31-.129-.424a.636.636,0,0,1-.186.031.577.577,0,0,1-.248-.052l-.176.408.289.336a.761.761,0,0,0,.083-.088.5.5,0,0,0,.052-.093.441.441,0,0,0,.026-.155.452.452,0,0,0-.083-.258.483.483,0,0,0-.119-.114.465.465,0,0,0-.145-.062.335.335,0,0,0-.1-.01.382.382,0,0,0-.186.041.452.452,0,0,0-.145.108.465.465,0,0,0-.077.124.484.484,0,0,0-.036.176.457.457,0,0,0,.062.227.381.381,0,0,0,.134.139.24.24,0,0,0,.083.041l.17-.408-.284-.341c-.17.145-.367.325-.589.548-.775.764-1.859,1.947-2.841,3.022-.491.537-.956,1.038-1.338,1.446-.191.2-.362.382-.5.522a3.46,3.46,0,0,1-.325.3l.284.341.429-.1a.544.544,0,0,0-.057-.139.427.427,0,0,0-.119-.124.452.452,0,0,0-.258-.083.412.412,0,0,0-.186.041.467.467,0,0,0-.165.129.327.327,0,0,0-.072.139.523.523,0,0,0-.021.134.371.371,0,0,0,.01.1.494.494,0,0,0,.119.222.419.419,0,0,0,.15.1.49.49,0,0,0,.165.031.425.425,0,0,0,.2-.046.519.519,0,0,0,.088-.057l-.284-.341-.429.1a.633.633,0,0,1,.021.145H47.5l-.444-.01v.01h0a.286.286,0,0,1-.01.093l.434.093-.429-.114h0V47.9a.634.634,0,0,1-.527.5h-.093a.633.633,0,0,1-.331-.1.568.568,0,0,1-.222-.248h0v-.01h0l-.4.2Zm.046-.47.444.01a.488.488,0,0,1,.377-.465.7.7,0,0,1,.1-.01.459.459,0,0,1,.186.036l.17-.408-.176.408.026.01h.005l.031.015.258.129.258-.217h0c.124-.1.284-.258.491-.465.356-.356.837-.857,1.369-1.415.79-.837,1.689-1.8,2.423-2.577.367-.393.692-.739.945-1,.124-.129.232-.243.315-.32l.1-.1c.026-.026.046-.041.052-.046l.222-.186L53.1,40.8l-.424.124.434-.093v-.021l-.01-.046-.429.108.434-.1v-.021l-.439.072.439-.062v-.036l-.444.062.439-.052v-.021h0v-.062l-.444.021.439.036v-.093l-.439-.062.434.083v-.021h0s.005-.036.01-.057l-.429-.114.429.119.01-.036-.429-.119.424.129a.253.253,0,0,1,.021-.052l-.408-.176.4.191.015-.026h0a.307.307,0,0,0,.021-.041h0l.015-.026-.382-.222.372.238a.393.393,0,0,1,.036-.046v-.01l.021-.016-.356-.263.32.3.01-.01v-.01l.015-.01.031-.036h0l.026-.026-.31-.32.294.331.041-.031-.253-.362.243.372.031-.021-.243-.372.232.377s.031-.021.041-.026h.005l.015-.01-.2-.393.191.4.041-.015-.145-.418.119.429.036-.01h0a.03.03,0,0,0,.026-.01h0l-.015-.067.015.067h0l-.015-.067.015.067h0a.165.165,0,0,0,.036-.005h.005l.031-.005-.072-.439.046.439-.01-.093v.093h.01l-.01-.093v.093H53.5l-.026-.444.015.444h.036l-.01-.17v.17h.01l-.01-.17v-.274l-.031.439h.1l.067-.439-.1.434h.031l.005.01h.01c.031.005.052.01.052.01h0a.134.134,0,0,1,.036.015h0c.021.01.036.01.041.015h0l.083-.2-.093.191h.01l.083-.191-.093.191h0l.057.031.253-.362-.274.351.016.015h.01l.01.015c.021.015.031.021.036.026h0l.088-.1-.093.1h0l.088-.1-.093.1h0l.021.026h0l.021.021h0l.057-.052-.062.052h0l.057-.052-.062.052h0l.052-.046-.052.041h0l.052-.041-.052.041a.128.128,0,0,1,.021.031l.351-.274-.351.269.015.021h0l.046-.031-.052.036h0l.046-.036-.052.036h0a.267.267,0,0,0,.015.026h0l.01.021h0v.005a.218.218,0,0,1,.01.026h0a.217.217,0,0,0,.01.026h0l.01.026a.044.044,0,0,0,.01.031h0V40.6h0v.036h0v.026h0V40.7l.444-.026h-.444v.072l.434.072-.434-.083v.01l-.005.015h0V40.8h-.005v.015l-.005.005-.01.031h0l-.005.021v.01h0l-.01.031-.093.263.227.232h0c.108.108.331.331.62.61.434.424,1,.981,1.508,1.472l.687.671c.2.191.351.346.429.429l.2.2.3-.108H57.8v-.005h0a.052.052,0,0,0,.026-.01h.015v-.005l-.01-.041.01.041h0l-.01-.041.01.041-.093-.434.083.434h.021l.015-.005h.01l.041-.005-.067-.439.046.439h.139l.052-.439-.062.439.036-.232-.046.232h.01l.036-.232-.046.232.021-.108-.026.108h0l.021-.108L58,44.651h.01l.031.01H58.1l.119-.429-.124.424.026-.093-.031.093h0l.026-.093-.031.093a.08.08,0,0,1,.031.01h0l.031.01.165-.408-.176.408.026.01.026.015h0l.015.01.031.015.248.134.243-.181.021-.015h0a5.959,5.959,0,0,0,.46-.393c.3-.284.677-.656,1.074-1.064.6-.615,1.271-1.317,1.865-1.921.294-.3.573-.579.811-.806a7.093,7.093,0,0,1,.563-.5l.227-.17-.067-.315v-.021h0v-.026l-.005-.021-.439.067.439-.052v-.057H63.23l.444.021v-.088l-.439-.052.439.067v-.036h0a.1.1,0,0,1,.01-.041h0l.01-.031-.429-.108.424.119a.344.344,0,0,1,.046-.108l-.382-.217.377.227.01-.021h0s.015-.026.026-.041h0l.015-.021-.351-.269.346.279s.026-.031.036-.041h0v-.01l-.031-.031.031.031h0l-.031-.031.031.031L63.834,39h0l.015-.021-.294-.331.279.341.036-.026-.238-.372.227.377h.005v-.005h0a.435.435,0,0,1,.077-.041l-.165-.413.145.418h.01l.005-.005h.005a.248.248,0,0,1,.088-.026l-.088-.434L64,38.9h.046c.026,0,.052-.005.067-.005v-.444l-.036.439h.052a.392.392,0,0,1,.083.005l.072-.439-.077.434a.348.348,0,0,1,.062.021h.01l.041.015.114-.429-.15.418a.435.435,0,0,1,.134.077l.01.01h.01a.4.4,0,0,0,.031.036l.32-.31-.331.294.01.01h0v.01l.026.026.351-.269-.362.253.016.026h0s.015.026.021.026l.382-.227-.387.217.015.031.387-.217-.387.212s.01.026.016.026l.4-.186-.408.176.015.036L64.97,39l-.408.165.01.026h0l.005.021h0l.01.036.424-.134-.434.093v.015h0v.015h0v.026h0v.026h0v.031h0v.026l.444-.046-.444.026v.031h.444l-.439-.036v.041a.391.391,0,0,1-.005.077v.031l.439.057-.429-.108v.015l-.005.01v.01c-.01.031-.015.052-.021.067h0l-.005.021.418.145-.4-.186v.015l-.01.01v.01c-.015.026-.026.046-.036.062l.377.232-.372-.238h0l.372.243-.356-.263v.01l-.015.01v.01s-.036.036-.057.062l.325.3-.315-.31-.021.021h0v.005a.322.322,0,0,1-.093.072l.217.387-.191-.4h0l-.01.005h-.01a.2.2,0,0,1-.041.026l.176.408-.155-.413h-.01v.005h0a.175.175,0,0,1-.041.015l.129.424-.114-.429H64.3L64.3,39.8h-.005a.329.329,0,0,1-.036.01l.088.434-.067-.439h-.031l-.036.005v0h0v0h-.077l.021.444v-.444h-.083l-.052.439.062-.439-.036.243.046-.243h-.01l-.036.243.046-.243-.015.088.021-.088h0l-.016.088.021-.088a.216.216,0,0,1-.036-.005h0a.089.089,0,0,1-.036-.005l-.114.429.114-.429H64.01l-.114.424.124-.424-.046.16.052-.155H64.02l-.046.155.052-.155-.01.026.01-.026h0l-.01.026.01-.026a.08.08,0,0,1-.031-.01h0a.216.216,0,0,0-.031-.01l-.165.408.176-.408-.026-.01-.026-.01h0l-.01-.005-.026-.015-.248-.134-.263.2a6.034,6.034,0,0,0-.491.418c-.341.31-.78.733-1.25,1.193-1.4,1.384-3.079,3.115-3.084,3.115l-.16.165.052.263v.026h0v.036l.444-.067-.439.057v.031l.439-.036-.444.021v.021h0v.057h0l.444-.021h-.444v.052h0v.015l.439.041-.434-.072v.031a.263.263,0,0,1-.01.046l.429.1-.424-.124-.01.036v.021l-.015.031h0v.005l.424.129-.413-.15a.28.28,0,0,1-.021.041h0v.01l.108.057-.108-.062h0l.108.062-.108-.062h0a.374.374,0,0,0-.021.036h0a.225.225,0,0,0-.021.036h0l.16.093-.15-.1-.01.01.16.093-.15-.1h0s-.036.041-.067.072h0a.528.528,0,0,1-.217.119h0a.417.417,0,0,1-.1.015h-.026a.3.3,0,0,1-.062-.005h-.036L57.816,46l.083-.434a.489.489,0,0,1-.3-.207h0a.62.62,0,0,1-.052-.1h0a.656.656,0,0,1-.021-.077v-.015l-.01-.026-.429.108.439-.046h0v-.036a.455.455,0,0,1-.01-.077v-.041l-.439.036.444.026v-.072h0V45l-.439-.036.439.057-.062-.01.062.01h0l-.062-.01.062.01V45h0v-.015h0v-.01h0a.131.131,0,0,1,.01-.036h0l.005-.021V44.9l.01-.021-.424-.124.408.17.015-.041.108-.258-.186-.207-.01-.01-.01-.01-.15-.15c-.289-.284-.935-.919-1.581-1.55s-1.281-1.265-1.544-1.529l-.2-.2-.3.108h-.01l-.036.01.114.429-.108-.429H53.6l-.005.01h-.062l.067.444-.046-.439h-.129a.159.159,0,0,1-.041-.01l-.1.429.114-.429h-.015l-.021-.01h0a.04.04,0,0,1-.026-.01l-.155.413.165-.408-.031-.015-.021-.01h-.005l-.031-.015L53,40.912l-.258.217h0a7.605,7.605,0,0,0-.558.522c-.754.744-1.865,1.952-2.882,3.053-.506.548-.992,1.069-1.389,1.493q-.3.318-.527.542c-.15.15-.269.258-.336.32l-.217.181.083.3h0v.021a.347.347,0,0,1,.021.124.48.48,0,0,1-.026.15v.015l-.01.031.429.108-.418-.139a.408.408,0,0,1-.145.2.557.557,0,0,1-.253.108l.031.217-.021-.217H46.5l.031.217-.021-.217v0h0v0h-.077l.01.114v-.114h-.01l.01.114v-.114h0a.375.375,0,0,1-.129-.021.481.481,0,0,1-.284-.227.473.473,0,0,1-.057-.222h0v-.01h0l-.444-.01-.444-.01v.026a1.34,1.34,0,0,0,.165.651,1.37,1.37,0,0,0,1.188.7h0a.725.725,0,0,0,.093-.005h.021a.423.423,0,0,0,.072-.005,1.448,1.448,0,0,0,.666-.284,1.275,1.275,0,0,0,.439-.615v-.015l.015-.031-.429-.108.418.139a1.352,1.352,0,0,0,.067-.429,1.3,1.3,0,0,0-.046-.346l-.429.108.434-.093v-.015l-.005-.01-.015-.057-.429.119.284.341c.124-.1.274-.253.465-.439.325-.331.754-.785,1.235-1.3.718-.77,1.539-1.674,2.278-2.453.367-.393.713-.754,1.012-1.054s.548-.542.713-.677h0l.036-.031-.284-.341-.2.4.041.021h.01l.026.015.021.01h0l.041.015H53l.005.005c.031.01.057.021.077.026h0l.026.01h.01l.036.01h.01c.041.01.077.015.1.021l.072-.439-.083.434h.026l.01.005h.026c.052.005.108.01.165.01a.658.658,0,0,0,.145-.01h.01l.041-.005h.046l.036-.01h.01l.052-.015h0c.021-.005.046-.015.083-.026l-.139-.418.134.424h.021l.01-.01.052-.021-.15-.418-.315.31.775.775c.506.5,1.126,1.111,1.627,1.6.248.243.47.46.625.615.077.077.139.139.186.181a.482.482,0,0,1,.052.052l.01.01h0l.2-.191-.2.191h0l.2-.191-.2.191.3-.294L56.783,45l.01.01.3-.294L56.778,45l.331-.294-.408-.17-.015.041-.01.021v.01h0a1.042,1.042,0,0,0-.036.119l.429.114-.424-.124v.015l-.01.015-.01.052h0v.021h0c0,.01-.005.031-.01.067v.046l.439.036-.439-.041c0,.031-.005.067-.005.108h.444l-.444-.021v.093l.444-.036h-.444a1.029,1.029,0,0,0,.021.217l.439-.072-.439.046h0V45.3l.01.041.429-.108-.434.083a1.177,1.177,0,0,0,.057.212h0a1.4,1.4,0,0,0,.155.3h0a1.363,1.363,0,0,0,.868.573h.015l.021.005.052-.439-.077.434a1.084,1.084,0,0,0,.191.021l.015-.444-.021.444h.067a1.333,1.333,0,0,0,.3-.036h0a1.372,1.372,0,0,0,.615-.331h0a1.2,1.2,0,0,0,.2-.222h0c.015-.026.031-.046.036-.057v-.01h.005l-.1-.057.1.057h0l-.1-.057.1.057h0c0-.005.026-.036.052-.088l-.4-.2.393.207a1,1,0,0,0,.067-.155v-.01l.01-.021h0l.01-.031v-.026h.01l.01-.036V45.4l.005-.01c.01-.052.021-.1.026-.145l-.439-.052.434.072v-.057h0c0-.046.005-.093.005-.139v-.031h0v-.057h0v-.041a.229.229,0,0,0-.01-.067h0l-.005-.046h0l-.005-.036v-.01l-.01-.057-.434.088.32.31s.062-.062.17-.176c.377-.387,1.333-1.369,2.288-2.324.48-.475.956-.95,1.358-1.333.2-.191.387-.362.542-.5s.279-.248.356-.3l.036-.031-.269-.351-.212.387.041.021H63.5l.031.021.031.015h.005l.041.021h0a.779.779,0,0,1,.077.031h0l.057.021h0l.026.005h0c.046.01.077.015.1.021h0l.031-.16-.036.16h0l.031-.16-.036.16v0h0v0a.586.586,0,0,0,.062.01h.016l.052-.439-.057.439c.057.005.119.01.181.01h.15a.35.35,0,0,0,.1-.015l-.072-.439.067.439h.031l.01-.005h.01a1.124,1.124,0,0,0,.114-.031l-.124-.424.114.429h.016l.01-.005h.01l.114-.041-.165-.408.155.413h.01l.01-.005h.01l.124-.062-.212-.387.191.4h0l.01-.01h.01a1.633,1.633,0,0,0,.31-.248l-.325-.3.315.31.021-.021h0v-.005a1.136,1.136,0,0,0,.145-.186l-.372-.238.356.263v-.01l.016-.015.01-.021h0a1.391,1.391,0,0,0,.1-.2l-.408-.165.4.186v-.015l.015-.021.01-.036-.418-.145.413.155a2.043,2.043,0,0,0,.057-.2l-.434-.088.429.108V39.6l.01-.026v-.041l-.434-.057.439.072c.01-.067.015-.139.021-.207h-.444l.439.031v-.165l-.439.046.439-.036a.323.323,0,0,0-.005-.062h0s-.005-.052-.01-.077h0l-.016-.062-.429.1.434-.088v-.01h0v-.015l-.005-.021-.015-.046-.424.134.424-.124a.406.406,0,0,0-.021-.062v-.005a.627.627,0,0,1-.026-.072h0l-.015-.046h0v-.01c-.016-.031-.026-.057-.036-.077h0l-.021-.036h0v-.01c-.021-.036-.041-.062-.052-.083h0l-.015-.026h0v-.01c-.026-.036-.057-.067-.083-.1l-.325.3.331-.294-.01-.01V38.4l-.016-.005c-.031-.031-.067-.067-.108-.1l-.279.346.294-.331a1.208,1.208,0,0,0-.429-.253h-.015l-.046-.021-.114.429.134-.424a.817.817,0,0,0-.181-.046h0a1.549,1.549,0,0,0-.2-.015l-.015.444.036-.439h-.072a1.04,1.04,0,0,0-.186.016h0a.221.221,0,0,0-.062.01l.077.434L63.922,38h-.031a2,2,0,0,0-.227.067l.155.413-.145-.418h-.01l-.01.005h-.01a1.515,1.515,0,0,0-.222.119l.238.372-.227-.377h-.005l-.005.005h-.005c-.036.026-.077.057-.114.088H63.3l-.021.026.294.331-.289-.336s-.041.036-.072.067l.315.31-.3-.32c-.046.046-.088.093-.119.129h0l-.015.026h0c-.026.036-.057.077-.083.119h0l-.01.021h0v.01a1.42,1.42,0,0,0-.129.3h0l-.01.046h0c-.01.036-.015.077-.026.114h0l-.005.041h0v.015a1.27,1.27,0,0,0-.01.145h.444l-.444-.015v.036a.862.862,0,0,0,.01.165h0v.041h0l.005.036v.031l.005.01.01.057.434-.093-.269-.351c-.139.1-.289.238-.47.4-.31.289-.682.661-1.09,1.074-.6.62-1.276,1.322-1.865,1.921-.294.3-.568.573-.8.8a6.894,6.894,0,0,1-.548.486l-.021.015h0l-.015.01.269.351.207-.393-.041-.021h-.01l-.031-.021-.031-.015h-.01l-.041-.021h0c-.036-.015-.062-.021-.072-.026h0a.333.333,0,0,0-.062-.021h0l-.026-.01h0c-.046-.01-.083-.015-.1-.021h0l-.026.15.031-.145H58.25l-.026.145.031-.145a.586.586,0,0,0-.062-.01h-.015l-.052.439.057-.439a1.032,1.032,0,0,0-.181-.01,1.306,1.306,0,0,0-.145.005h-.01l-.046.01H57.76l-.036.01h0c-.031.005-.052.015-.067.015l.114.429-.108-.429-.083.026.139.418-.129-.424h-.021l-.01.01-.057.021.145.418.315-.31c-.124-.124-.356-.356-.651-.646-.444-.434-1.018-.992-1.519-1.482-.253-.243-.486-.47-.671-.656s-.336-.331-.408-.4h0l-.031-.031-.315.31.418.15.01-.031h0l.005-.01h0l.01-.031h0l.01-.031h0l.005-.021h0l.01-.036.01-.036v-.015l.015-.041h0l.005-.021h0v-.031h0v-.016a.935.935,0,0,0,.01-.129l-.444-.015.439.036v-.165l-.444.026.444-.01v-.072h0a.778.778,0,0,0-.01-.1h0s-.01-.052-.015-.072h0a.436.436,0,0,0-.026-.088.456.456,0,0,0-.026-.077h0c-.01-.036-.026-.062-.031-.083h0s-.021-.046-.036-.077h0c-.015-.031-.031-.057-.036-.067h0s-.026-.046-.046-.077h0q-.039-.054-.046-.062h0a.612.612,0,0,0-.057-.067h0c-.031-.036-.057-.057-.062-.067h0l-.057-.057h0a1.367,1.367,0,0,0-.114-.088l-.253.362.274-.351-.015-.015H54.3l-.01-.016a.905.905,0,0,0-.181-.1h0a.409.409,0,0,0-.067-.026H54.03v-.005l-.021.062.026-.057h0l-.021.057.026-.057h0s-.046-.021-.108-.041h0a.8.8,0,0,0-.155-.036l-.077.434.1-.434h-.031l-.015-.01h-.016a1.151,1.151,0,0,0-.165-.015l-.015.444.031-.439h-.119v0h0l.005.108V39.3h-.005s-.031,0-.083.005h-.01l-.041.01.072.439-.062-.439s-.062.01-.108.021h0a.759.759,0,0,0-.1.026l.129.424-.119-.429-.036.01H53.1l-.01.005c-.046.015-.093.036-.139.057h0l-.015.01.2.393-.186-.4c-.052.026-.093.046-.134.072h0l-.036.026h-.005l-.005.005a.929.929,0,0,0-.124.1h-.005l-.031.031.31.32-.3-.32a.813.813,0,0,0-.093.1l.336.289-.32-.3-.01.01-.021.021-.026.031.356.263-.346-.279c-.031.041-.062.083-.093.129h0l-.021.041h0a.776.776,0,0,0-.057.114h0l-.016.026h0v.015c-.021.052-.036.1-.052.145h0l-.01.041h0v.005c-.01.041-.021.093-.031.145l.439.067-.434-.083v.036c-.01.062-.01.114-.015.165l.444.01-.439-.036v.129h0a.342.342,0,0,0,.005.077h0l.005.046h0v.01a.355.355,0,0,0,.01.067h0l.01.046h0v.021l.015.062.424-.124-.284-.341c-.046.041-.093.083-.155.145-.114.108-.269.269-.46.47-.671.7-1.777,1.9-2.8,2.986-.511.542-1.007,1.064-1.41,1.477-.2.207-.382.393-.532.537s-.269.258-.336.315H46.69l-.031.031.284.341.2-.4L47.1,46.49h-.01l-.026-.016-.021-.01h0a1.331,1.331,0,0,0-.527-.1,1.294,1.294,0,0,0-.284.031,1.363,1.363,0,0,0-1.074,1.317h0l.444.01Z" transform="translate(-44.96 -33.071)" fill="#353448"/>
    <path id="Path_3499" data-name="Path 3499" d="M47.007,49.161a.987.987,0,0,1-.888-.558h0a.955.955,0,0,1-.1-.434,1,1,0,0,1,1-1,1.029,1.029,0,0,1,.418.088l5.677-5.873a.984.984,0,0,1-.041-.279,1,1,0,0,1,.573-.909.954.954,0,0,1,.418-.093.988.988,0,0,1,.558.17,1,1,0,0,1,.434.816v.083a.788.788,0,0,1-.067.284L58.2,44.616a.977.977,0,0,1,.346-.062,1.051,1.051,0,0,1,.47.114l4.757-4.628a.891.891,0,0,1-.026-.232,1,1,0,0,1,.3-.723,1,1,0,0,1,1.684.723.959.959,0,0,1-.258.666h0a.955.955,0,0,1-.733.32,1.025,1.025,0,0,1-.465-.108l-4.757,4.628a1.292,1.292,0,0,1,.026.243.947.947,0,0,1-.108.449.993.993,0,0,1-.878.542h-.046a1,1,0,0,1-.9-.656,1.1,1.1,0,0,1-.057-.341,1,1,0,0,1,.062-.346l-3.208-3.177a.97.97,0,0,1-.341.062A.954.954,0,0,1,53.654,42L47.972,47.87a.955.955,0,0,1,.041.289.693.693,0,0,1-.021.181,1,1,0,0,1-.852.8h0a1,1,0,0,1-.124.01h0Z" transform="translate(-45.472 -33.516)" fill="#353448"/>
    <path id="Path_3500" data-name="Path 3500" d="M64.531,38.84a.744.744,0,0,1,.5.186h0a.777.777,0,0,1,.062,1.105h0a.744.744,0,0,1-.568.248.772.772,0,0,1-.449-.139l-.046-.031-4.974,4.84.015.052a.891.891,0,0,1,.036.258.743.743,0,0,1-.083.346h0a.779.779,0,0,1-.682.424h-.036a.77.77,0,0,1-.739-.775.677.677,0,0,1,.088-.346l.026-.046-3.43-3.394-.046.026a.767.767,0,0,1-.341.077h0a.784.784,0,0,1-.413-.119L53.4,41.52l-5.894,6.1.015.046a.879.879,0,0,1,.057.3.384.384,0,0,1-.015.134h0a.78.78,0,0,1-.661.62h0c-.031,0-.067.005-.1.005h0a.783.783,0,0,1-.692-.434h0a.74.74,0,0,1-.077-.331.761.761,0,0,1,.232-.553h0a.757.757,0,0,1,.542-.222h0a.753.753,0,0,1,.408.119l.046.031,5.9-6.1-.021-.052a.748.748,0,0,1-.057-.279.785.785,0,0,1,.444-.708h0a.735.735,0,0,1,.331-.072.756.756,0,0,1,.434.134h0a.768.768,0,0,1,.336.635v.062h0a1,1,0,0,1-.088.315l-.015.041,3.419,3.363L58,44.651a.811.811,0,0,1,.8.062l.041.031,4.974-4.84-.015-.052a.771.771,0,0,1,.2-.806h0a.741.741,0,0,1,.537-.217m0-.444a1.209,1.209,0,0,0-.842.336,1.222,1.222,0,0,0-.372.883.782.782,0,0,0,.01.155L58.761,44.2a1.3,1.3,0,0,0-.418-.072,1.248,1.248,0,0,0-.279.031l-3.022-2.97a1.292,1.292,0,0,0,.036-.212v-.093a1.219,1.219,0,0,0-1.214-1.214,1.256,1.256,0,0,0-.517.114,1.233,1.233,0,0,0-.7,1.111.982.982,0,0,0,.021.212l-5.491,5.677a1.167,1.167,0,0,0-.356-.052,1.215,1.215,0,0,0-.857.351,1.2,1.2,0,0,0-.362.868,1.147,1.147,0,0,0,.124.527h0a1.218,1.218,0,0,0,1.085.682.782.782,0,0,0,.155-.01,1.206,1.206,0,0,0,1.043-.981,1.2,1.2,0,0,0,0-.444l5.5-5.682a1.2,1.2,0,0,0,.362.052,1.248,1.248,0,0,0,.279-.031l3.022,2.986a1.3,1.3,0,0,0-.036.284,1.272,1.272,0,0,0,.072.418,1.224,1.224,0,0,0,1.09.8h.057a1.233,1.233,0,0,0,1.08-.666,1.157,1.157,0,0,0,.129-.548.889.889,0,0,0-.01-.165l4.566-4.442a1.242,1.242,0,0,0,.413.072,1.2,1.2,0,0,0,.9-.393,1.175,1.175,0,0,0,.315-.816,1.208,1.208,0,0,0-1.214-1.214Z" transform="translate(-45.269 -33.308)" fill="#fff"/>
  </g>
</svg>
